<?xml version="1.0" standalone="no"?>
<!DOCTYPE svg PUBLIC "-//W3C//DTD SVG 20010904//EN"
 "http://www.w3.org/TR/2001/REC-SVG-20010904/DTD/svg10.dtd">
<svg version="1.0" xmlns="http://www.w3.org/2000/svg"
 width="600.000000pt" height="600.000000pt" viewBox="0 0 600.000000 600.000000"
 preserveAspectRatio="xMidYMid meet">
<metadata>
Created by potrace 1.14, written by Peter Selinger 2001-2017
</metadata>
<g transform="translate(0.000000,600.000000) scale(0.100000,-0.100000)"
fill="#000000" stroke="none">
<path d="M0 3000 l0 -3000 3000 0 3000 0 0 3000 0 3000 -3000 0 -3000 0 0
-3000z m3233 2191 c23 -5 78 -14 121 -21 78 -12 280 -67 426 -117 115 -39 303
-133 425 -213 500 -328 806 -764 966 -1379 15 -60 19 -109 19 -249 l0 -175
-87 5 c-142 8 -211 48 -393 224 -149 145 -193 180 -282 229 l-73 40 -120 0
c-114 0 -123 -1 -168 -28 -26 -16 -107 -85 -180 -155 -73 -70 -152 -140 -175
-156 -54 -37 -128 -56 -217 -56 -99 0 -159 18 -248 75 -255 163 -275 171 -370
140 -58 -19 -197 -101 -197 -117 0 -5 23 -35 51 -66 89 -100 187 -265 255
-431 l10 -25 245 -1 c311 -3 525 -33 888 -126 372 -96 896 -320 925 -396 13
-33 -61 -199 -163 -368 -146 -244 -449 -553 -678 -694 -278 -171 -515 -263
-847 -326 -57 -11 -150 -15 -351 -15 -288 0 -318 3 -548 60 -256 63 -572 217
-787 384 -422 327 -703 775 -817 1301 -23 108 -26 147 -30 395 -5 306 2 400
48 582 83 334 249 654 478 921 259 303 653 557 1026 663 44 12 118 34 165 49
47 14 127 30 178 34 51 4 95 11 99 15 10 9 359 7 406 -3z"/>
<path d="M2730 4998 c-93 -10 -293 -61 -410 -103 -347 -125 -702 -392 -933
-703 -69 -92 -167 -253 -167 -272 0 -4 53 -20 118 -35 375 -86 702 -204 916
-331 92 -56 253 -163 267 -180 6 -8 15 -14 20 -14 4 0 41 24 81 53 40 28 107
68 148 87 70 32 82 35 175 35 93 0 104 -2 162 -32 34 -17 107 -61 161 -97 129
-85 189 -116 222 -116 57 0 146 60 267 179 180 178 229 206 425 241 61 11 113
20 115 20 13 0 -5 34 -52 96 -53 70 -55 72 -92 68 -92 -10 -424 -34 -603 -44
-107 -6 -245 -18 -307 -26 -121 -16 -159 -12 -220 26 -37 22 -39 29 -18 70 31
59 57 70 174 70 107 0 366 22 476 40 33 5 135 10 228 10 92 0 167 4 167 9 0
16 -110 108 -194 164 -272 180 -521 258 -832 258 -280 0 -456 -46 -747 -196
-124 -63 -159 -59 -189 25 -11 33 -10 35 37 76 83 73 313 175 513 226 81 21
108 23 387 23 296 -1 301 -1 399 -28 292 -81 515 -205 736 -413 l125 -117 130
7 c197 9 295 18 300 26 7 11 -150 207 -239 298 -283 292 -653 496 -1056 583
-79 17 -138 21 -350 24 -140 1 -293 -1 -340 -7z"/>
<path d="M4645 3924 c-16 -2 -74 -9 -128 -15 -53 -6 -99 -14 -101 -18 -7 -10
119 -231 151 -265 45 -49 363 -332 412 -368 l44 -32 -6 85 c-11 138 -55 288
-159 534 l-34 80 -74 1 c-41 1 -88 0 -105 -2z"/>
<path d="M1125 3728 c-10 -29 -64 -207 -80 -263 -10 -33 -23 -105 -31 -160
-14 -106 -19 -421 -6 -428 15 -8 271 14 382 32 63 11 162 22 220 26 199 13
387 66 569 161 114 59 234 142 225 155 -5 9 -113 80 -199 132 -47 29 -176 94
-255 130 -196 88 -510 184 -699 212 -117 18 -121 18 -126 3z"/>
<path d="M2480 3084 c-113 -91 -294 -185 -466 -242 -138 -46 -247 -67 -429
-82 -71 -6 -231 -22 -354 -37 l-223 -26 6 -41 c3 -23 18 -92 33 -155 l27 -114
120 7 c67 3 207 10 313 15 105 5 196 12 202 15 5 4 88 11 183 17 215 13 474
27 509 28 14 1 74 33 135 74 61 40 144 85 185 101 104 41 103 40 71 111 -55
125 -221 376 -247 374 -5 0 -35 -20 -65 -45z"/>
<path d="M3034 2539 c33 -113 40 -449 13 -556 -38 -146 -123 -260 -236 -316
-60 -29 -75 -32 -179 -35 -111 -4 -116 -3 -178 28 -150 74 -224 248 -190 446
8 49 22 109 31 133 8 24 13 46 11 49 -8 8 -215 2 -306 -8 -127 -15 -548 -43
-770 -52 l-65 -3 3 -34 c8 -75 92 -236 216 -411 102 -145 348 -384 481 -468
86 -55 247 -92 399 -92 97 0 325 35 461 71 233 62 504 183 753 338 232 144
321 185 486 220 188 41 469 45 675 11 35 -6 65 -10 66 -8 5 6 93 155 124 211
18 32 31 60 29 62 -11 11 -177 89 -276 130 -168 68 -477 168 -606 195 -22 4
-95 20 -162 34 -171 36 -308 53 -464 60 -74 3 -177 9 -229 12 l-94 7 7 -24z"/>
<path d="M2795 2492 c-173 -78 -248 -138 -310 -247 -107 -191 -71 -406 76
-445 83 -23 169 3 239 71 63 62 80 104 87 227 8 145 -5 422 -21 421 -6 0 -38
-13 -71 -27z"/>
<path d="M4105 1709 c-80 -10 -223 -53 -315 -93 -216 -95 -371 -249 -492 -488
-38 -73 -68 -139 -68 -147 0 -11 16 -13 83 -8 204 14 565 146 790 288 40 26
209 149 217 159 3 3 34 30 69 60 59 51 191 202 191 220 0 19 -351 26 -475 9z"/>
<path d="M2966 1189 c-102 -35 -234 -72 -335 -93 -92 -19 -176 -38 -186 -41
-11 -4 -27 -9 -35 -12 -8 -3 55 -20 140 -39 121 -25 191 -34 317 -40 l163 -7
31 69 c40 88 89 207 89 217 0 10 0 10 -184 -54z"/>
</g>
</svg>
